<?xml version="1.0" encoding="UTF-8"?><svg id="a" xmlns="http://www.w3.org/2000/svg" xmlns:xlink="http://www.w3.org/1999/xlink" viewBox="0 0 51.03 43.98"><defs><style>.c,.d,.e{fill:none;}.d{stroke-width:.4px;}.d,.e{stroke:#ffd336;stroke-miterlimit:10;}.f{fill:#fff;}.g{fill:#ffd336;}.e{stroke-width:1.2px;}.h{clip-path:url(#b);}</style><clipPath id="b"><rect class="c" x="-292" y="-4420.79" width="1440" height="817.5"/></clipPath></defs><g class="h"><rect class="f" x="-292" y="-4420.79" width="1440" height="9802.5"/></g><path class="g" d="M21.68,34.12c-6.15,0-10.36-4.57-10.36-11.83,0-.21,0,.2,0,0H1.13c0,.2,0-.21,0,0,0,12.3,8.55,20.91,20.67,20.91,9.78,0,17.16-5.45,19.51-14.35h-11.01c-1.7,3.51-4.8,5.27-8.61,5.27Z"/><g><path class="e" d="M1.4,17.75l18.59,3.59s.39,.67,1.7,.78,1.85-.77,1.85-.77l17.94-3.04"/><g><line class="d" x1="38.78" y1="11.04" x2="21.64" y2="20.81"/><line class="d" x1="40.47" y1="14.79" x2="21.94" y2="20.51"/><line class="d" x1="36.51" y1="7.91" x2="21.68" y2="20.86"/><line class="d" x1="26.23" y1="1.6" x2="21.78" y2="20.87"/><line class="d" x1="30.21" y1="2.79" x2="21.78" y2="20.93"/><line class="d" x1="33.7" y1="5.13" x2="21.84" y2="20.79"/><polyline class="d" points="21.98 .89 21.67 19.09 21.68 20.86"/><line class="d" x1="9.59" y1="4.85" x2="21.61" y2="20.92"/><line class="d" x1="17.84" y1="1.12" x2="21.54" y2="20.91"/><line class="d" x1="13.5" y1="2.28" x2="21.58" y2="20.93"/><line class="d" x1="6.57" y1="7.58" x2="21.67" y2="20.88"/><line class="d" x1="2.67" y1="14.19" x2="21.49" y2="20.46"/><line class="d" x1="4.25" y1="10.62" x2="21.59" y2="20.72"/><ellipse class="d" cx="21.78" cy="20.46" rx=".82" ry=".4"/></g></g><path class="g" d="M47.23,40.95c-1.93,0-3.23-1.3-3.23-2.92s1.3-2.98,3.23-2.98,3.2,1.3,3.2,2.98-1.3,2.92-3.2,2.92Z"/></svg>