<?xml version="1.0" encoding="UTF-8"?><svg id="a" xmlns="http://www.w3.org/2000/svg" xmlns:xlink="http://www.w3.org/1999/xlink" viewBox="0 0 174.66 33.61"><defs><style>.c,.d,.e{fill:none;}.d{stroke-width:.4px;}.d,.e{stroke:#ed5e48;stroke-miterlimit:10;}.e{stroke-width:.8px;}.f{fill:#ed5e48;}.g{fill:#fff;}.h{clip-path:url(#b);}</style><clipPath id="b"><rect class="c" x="21.02" y="-4424.74" width="1440" height="817.5"/></clipPath></defs><g/><g class="h"><rect class="g" x="21.02" y="-4424.74" width="1440" height="9802.5"/></g><g><line class="e" x1="34.28" y1="13.45" x2="18.61" y2="15.75"/><line class="d" x1="32.61" y1="8.88" x2="18.64" y2="15.76"/><line class="d" x1="33.63" y1="11.17" x2="18.64" y2="15.73"/><line class="d" x1="31.27" y1="6.8" x2="18.67" y2="15.8"/><line class="d" x1="24.57" y1="1.61" x2="18.75" y2="15.81"/><line class="d" x1="21.78" y1=".8" x2="18.74" y2="15.78"/><line class="d" x1="27.14" y1="2.99" x2="18.76" y2="15.85"/><line class="d" x1="29.37" y1="4.75" x2="18.8" y2="15.75"/><polyline class="d" points="18.91 .27 18.67 14.43 18.67 15.8"/><line class="d" x1="8.8" y1="3.77" x2="18.62" y2="15.85"/><line class="d" x1="13.49" y1="1.23" x2="18.57" y2="15.84"/><line class="d" x1="16.14" y1=".52" x2="18.61" y2="15.88"/><line class="d" x1="11.09" y1="2.36" x2="18.59" y2="15.85"/><line class="d" x1="6.72" y1="5.74" x2="18.67" y2="15.82"/><line class="e" x1="2.96" y1="12.9" x2="18.8" y2="15.75"/><line class="d" x1="3.83" y1="10.49" x2="18.72" y2="15.73"/><line class="d" x1="4.96" y1="8.18" x2="18.61" y2="15.69"/></g><path class="f" d="M18.49,25.9c-4.72,0-7.96-3.51-7.96-9.09,0-.16,.01-.31,.02-.46H2.72c0,.16-.02,.31-.02,.46,0,9.45,6.57,16.06,15.88,16.06,7.52,0,13.19-4.18,14.99-11.02h-8.46c-1.3,2.7-3.69,4.05-6.61,4.05Z"/><path class="f" d="M42.71,13.47c2.64,0,4.52,1.21,5.47,2.77v-2.51h5.44V31.47h-5.44v-2.51c-.99,1.56-2.86,2.77-5.5,2.77-4.32,0-7.79-3.56-7.79-9.16s3.47-9.1,7.82-9.1Zm1.59,4.74c-2.04,0-3.88,1.53-3.88,4.36s1.84,4.42,3.88,4.42,3.88-1.56,3.88-4.39-1.81-4.39-3.88-4.39Z"/><path class="f" d="M56.77,7.94h5.44V31.47h-5.44V7.94Z"/><path class="f" d="M73.24,31.73c-5.22,0-8.97-3.5-8.97-9.13s3.69-9.13,8.97-9.13,8.84,3.44,8.84,8.84c0,.51-.03,1.05-.09,1.59h-12.31c.19,2.32,1.62,3.4,3.37,3.4,1.53,0,2.39-.76,2.83-1.72h5.79c-.86,3.47-4.01,6.14-8.43,6.14Zm-3.53-10.85h6.8c0-1.94-1.53-3.05-3.34-3.05s-3.15,1.08-3.47,3.05Z"/><path class="f" d="M96.4,21.84c0-2.42-1.34-3.75-3.4-3.75s-3.4,1.34-3.4,3.75v9.64h-5.44V13.73h5.44v2.35c1.08-1.5,2.99-2.54,5.37-2.54,4.1,0,6.84,2.8,6.84,7.57v10.37h-5.41v-9.64Z"/><path class="f" d="M111.54,13.47c2.35,0,4.39,1.08,5.47,2.7V7.94h5.44V31.47h-5.44v-2.54c-.99,1.62-2.86,2.8-5.47,2.8-4.36,0-7.82-3.56-7.82-9.16s3.47-9.1,7.82-9.1Zm1.59,4.74c-2.04,0-3.88,1.53-3.88,4.36s1.84,4.42,3.88,4.42,3.88-1.56,3.88-4.39-1.81-4.39-3.88-4.39Z"/><path class="f" d="M131.04,31.47h-5.44V13.73h5.44v2.96c1.24-1.88,3.18-3.15,5.56-3.15v5.76h-1.49c-2.58,0-4.07,.89-4.07,3.94v8.24Z"/><path class="f" d="M137.91,8.96c0-1.65,1.3-2.96,3.24-2.96s3.21,1.3,3.21,2.96-1.3,2.92-3.21,2.92-3.24-1.3-3.24-2.92Zm.51,4.77h5.44V31.47h-5.44V13.73Z"/><path class="f" d="M153.75,13.47c2.64,0,4.52,1.21,5.47,2.77v-2.51h5.44V31.47h-5.44v-2.51c-.99,1.56-2.86,2.77-5.5,2.77-4.32,0-7.79-3.56-7.79-9.16s3.47-9.1,7.82-9.1Zm1.59,4.74c-2.04,0-3.88,1.53-3.88,4.36s1.84,4.42,3.88,4.42,3.88-1.56,3.88-4.39-1.81-4.39-3.88-4.39Z"/><path class="f" d="M170.35,31.73c-1.94,0-3.24-1.3-3.24-2.93s1.3-2.99,3.24-2.99,3.21,1.3,3.21,2.99-1.3,2.93-3.21,2.93Z"/></svg>