<?xml version="1.0" encoding="UTF-8"?><svg id="a" xmlns="http://www.w3.org/2000/svg" xmlns:xlink="http://www.w3.org/1999/xlink" viewBox="0 0 217.3 56.74"><defs><style>.c,.d,.e{fill:none;}.f{fill:#fff;}.g{fill:#51bae5;}.d,.e{stroke:#51bae5;stroke-miterlimit:10;}.h{clip-path:url(#b);}.e{stroke-width:.5px;}</style><clipPath id="b"><rect class="c" x="-91.85" y="-4253.12" width="1440" height="817.5"/></clipPath></defs><g class="h"><rect class="f" x="-91.85" y="-4253.12" width="1440" height="9802.5"/></g><g><g><line class="d" x1="41.52" y1="17.31" x2="21.96" y2="20.18"/><line class="e" x1="39.43" y1="11.61" x2="22" y2="20.2"/><line class="e" x1="40.71" y1="14.48" x2="21.99" y2="20.17"/><line class="e" x1="37.76" y1="9.02" x2="22.04" y2="20.25"/><line class="e" x1="29.4" y1="2.55" x2="22.14" y2="20.26"/><line class="e" x1="25.92" y1="1.53" x2="22.12" y2="20.22"/><line class="e" x1="32.61" y1="4.26" x2="22.14" y2="20.31"/><line class="e" x1="35.38" y1="6.46" x2="22.19" y2="20.18"/><polyline class="e" points="22.33 .87 22.04 18.54 22.04 20.25"/><line class="e" x1="9.72" y1="5.23" x2="21.97" y2="20.31"/><line class="e" x1="15.57" y1="2.06" x2="21.91" y2="20.3"/><line class="e" x1="18.87" y1="1.18" x2="21.96" y2="20.35"/><line class="e" x1="12.58" y1="3.47" x2="21.94" y2="20.32"/><line class="e" x1="7.12" y1="7.7" x2="22.03" y2="20.27"/><line class="d" x1="2.43" y1="16.63" x2="22.19" y2="20.18"/><line class="e" x1="3.51" y1="13.62" x2="22.09" y2="20.16"/><line class="e" x1="4.92" y1="10.73" x2="21.96" y2="20.11"/></g><path class="g" d="M21.81,32.86c-5.9,0-9.94-4.38-9.94-11.34,0-.2,.01-.39,.02-.58H2.13c0,.2-.03,.38-.03,.58,0,11.79,8.2,20.05,19.82,20.05,9.38,0,16.46-5.22,18.7-13.76h-10.56c-1.63,3.37-4.6,5.05-8.25,5.05Z"/><path class="g" d="M52.03,17.35c3.29,0,5.64,1.51,6.83,3.45v-3.14h6.79v22.15h-6.79v-3.14c-1.23,1.95-3.57,3.45-6.87,3.45-5.4,0-9.72-4.45-9.72-11.43s4.33-11.35,9.76-11.35Zm1.98,5.91c-2.54,0-4.84,1.91-4.84,5.44s2.3,5.52,4.84,5.52,4.84-1.94,4.84-5.48-2.26-5.48-4.84-5.48Z"/><path class="g" d="M69.58,10.44h6.79v29.37h-6.79V10.44Z"/><path class="g" d="M90.14,40.13c-6.51,0-11.19-4.37-11.19-11.39s4.6-11.39,11.19-11.39,11.03,4.29,11.03,11.03c0,.64-.04,1.31-.12,1.98h-15.36c.24,2.9,2.02,4.25,4.21,4.25,1.91,0,2.98-.95,3.53-2.14h7.22c-1.07,4.33-5,7.66-10.52,7.66Zm-4.41-13.53h8.49c0-2.42-1.9-3.81-4.17-3.81s-3.93,1.35-4.33,3.81Z"/><path class="g" d="M119.04,27.78c0-3.02-1.67-4.68-4.25-4.68s-4.25,1.67-4.25,4.68v12.03h-6.79V17.66h6.79v2.94c1.35-1.87,3.73-3.18,6.71-3.18,5.12,0,8.53,3.49,8.53,9.45v12.94h-6.75v-12.03Z"/><path class="g" d="M137.93,17.35c2.94,0,5.48,1.35,6.83,3.37V10.44h6.79v29.37h-6.79v-3.17c-1.23,2.02-3.57,3.49-6.83,3.49-5.44,0-9.76-4.45-9.76-11.43s4.33-11.35,9.76-11.35Zm1.98,5.91c-2.54,0-4.84,1.91-4.84,5.44s2.3,5.52,4.84,5.52,4.84-1.94,4.84-5.48-2.26-5.48-4.84-5.48Z"/><path class="g" d="M162.27,39.81h-6.79V17.66h6.79v3.69c1.55-2.34,3.97-3.93,6.94-3.93v7.18h-1.86c-3.22,0-5.08,1.11-5.08,4.92v10.28Z"/><path class="g" d="M170.84,11.71c0-2.06,1.63-3.69,4.05-3.69s4.01,1.63,4.01,3.69-1.63,3.65-4.01,3.65-4.05-1.63-4.05-3.65Zm.63,5.95h6.79v22.15h-6.79V17.66Z"/><path class="g" d="M190.61,17.35c3.29,0,5.64,1.51,6.83,3.45v-3.14h6.79v22.15h-6.79v-3.14c-1.23,1.95-3.57,3.45-6.87,3.45-5.4,0-9.72-4.45-9.72-11.43s4.33-11.35,9.76-11.35Zm1.98,5.91c-2.54,0-4.84,1.91-4.84,5.44s2.3,5.52,4.84,5.52,4.84-1.94,4.84-5.48-2.26-5.48-4.84-5.48Z"/><path class="g" d="M211.33,40.13c-2.42,0-4.05-1.63-4.05-3.65s1.63-3.73,4.05-3.73,4.01,1.63,4.01,3.73-1.63,3.65-4.01,3.65Z"/></g><g><path class="g" d="M103.62,48.41c.13-.02,.27-.04,.43-.04,.16,0,.29-.01,.39-.01s.23,0,.37,.01c.14,0,.27,.02,.4,.04l.69,2.5c.02,.06,.04,.16,.07,.29,.03,.13,.07,.28,.1,.44,.04,.16,.07,.31,.1,.46,.03,.15,.05,.26,.07,.35h.06c.01-.09,.04-.2,.07-.35,.03-.15,.06-.3,.1-.46s.07-.3,.1-.44c.03-.13,.06-.23,.07-.29l.69-2.5c.13-.02,.27-.04,.41-.04,.13,0,.25-.01,.36-.01s.23,0,.39,.01c.15,0,.29,.02,.43,.04l.48,6.13c-.09,.02-.19,.04-.3,.05-.11,.01-.22,.02-.31,.02s-.18,0-.27,0c-.09,0-.18-.02-.27-.03l-.17-2.89c0-.19-.02-.4-.03-.63s-.02-.46-.03-.7c0-.23-.01-.44-.02-.63h-.05l-1.06,3.91c-.09,.02-.19,.03-.31,.03-.12,0-.22,.01-.31,.01-.08,0-.18,0-.3-.01-.12,0-.23-.02-.32-.03l-1.05-3.91h-.05c0,.19,0,.39-.02,.63,0,.23-.02,.46-.02,.7s-.02,.44-.03,.63l-.18,2.89c-.09,.02-.18,.03-.27,.03-.09,0-.18,0-.27,0-.1,0-.2,0-.31-.02-.11-.01-.21-.03-.29-.05l.48-6.13Z"/><path class="g" d="M110.48,48.46l.06-.06h1.13v.99c0,.13,0,.23,0,.32,0,.09,0,.2,0,.32v2.98c0,.1,0,.19,0,.27,0,.08,0,.18,0,.28v1h-.49c-.22,0-.39-.06-.51-.19-.12-.13-.18-.3-.18-.53v-5.39Zm3.82-.06c.02,.09,.03,.17,.03,.25s0,.15,0,.22,0,.15-.02,.25c-.02,.1-.04,.2-.07,.29h-1.98c-.07,0-.17,0-.29,0s-.25,0-.38,0c-.13,0-.24,0-.33,0v-1h3.04Zm-.51,2.56c.02,.08,.04,.16,.05,.25,.01,.09,.02,.18,.02,.24s0,.15-.02,.24c-.01,.09-.03,.18-.05,.25h-1.53c-.07,0-.17,0-.29,0h-.38c-.13,0-.24,0-.33-.01v-.96c.09,0,.2,0,.33,0h.38c.12,0,.22,0,.29,0h1.53Zm.71,2.59c0,.35-.05,.6-.16,.77s-.32,.25-.63,.25h-2.45v-.98c.17,0,.34-.02,.5-.03,.16,0,.34-.01,.54-.01h2.2Z"/><path class="g" d="M115.69,48.41c.13-.02,.27-.04,.43-.04,.16,0,.29-.01,.39-.01s.23,0,.37,.01c.14,0,.27,.02,.4,.04l.69,2.5c.02,.06,.04,.16,.07,.29,.03,.13,.07,.28,.1,.44,.04,.16,.07,.31,.1,.46,.03,.15,.05,.26,.07,.35h.06c.01-.09,.04-.2,.07-.35,.03-.15,.06-.3,.1-.46s.07-.3,.1-.44c.03-.13,.06-.23,.07-.29l.69-2.5c.13-.02,.27-.04,.41-.04,.13,0,.25-.01,.36-.01s.23,0,.39,.01c.15,0,.29,.02,.43,.04l.48,6.13c-.09,.02-.19,.04-.3,.05-.11,.01-.22,.02-.31,.02s-.18,0-.27,0c-.09,0-.18-.02-.27-.03l-.17-2.89c0-.19-.02-.4-.03-.63s-.02-.46-.03-.7c0-.23-.01-.44-.02-.63h-.05l-1.06,3.91c-.09,.02-.19,.03-.31,.03-.12,0-.22,.01-.31,.01-.08,0-.18,0-.3-.01-.12,0-.23-.02-.32-.03l-1.05-3.91h-.05c0,.19,0,.39-.02,.63,0,.23-.02,.46-.02,.7s-.02,.44-.03,.63l-.18,2.89c-.09,.02-.18,.03-.27,.03-.09,0-.18,0-.27,0-.1,0-.2,0-.31-.02-.11-.01-.21-.03-.29-.05l.48-6.13Z"/><path class="g" d="M122.19,51.47c0-.62,.09-1.18,.28-1.66,.19-.48,.47-.86,.86-1.13,.39-.27,.87-.41,1.46-.41s1.08,.14,1.46,.41c.38,.27,.67,.65,.86,1.13s.28,1.03,.28,1.65-.09,1.18-.28,1.66c-.19,.48-.47,.86-.86,1.13s-.87,.41-1.46,.41-1.08-.14-1.47-.41c-.39-.28-.67-.66-.86-1.14s-.28-1.03-.28-1.66Zm1.27,0c0,.26,.02,.52,.05,.78s.1,.51,.19,.73c.09,.23,.23,.41,.4,.54s.41,.21,.7,.21,.52-.07,.69-.21,.31-.32,.4-.54c.09-.23,.16-.47,.19-.73s.05-.52,.05-.78-.02-.51-.05-.78-.09-.51-.19-.73c-.09-.22-.23-.4-.4-.54s-.41-.21-.69-.21-.52,.07-.7,.21-.31,.32-.4,.54c-.09,.22-.16,.47-.19,.73s-.05,.52-.05,.78Z"/><path class="g" d="M132.54,50.26c0,.28-.05,.53-.16,.76s-.25,.41-.42,.56c-.17,.15-.35,.26-.55,.33,.16,.06,.29,.16,.4,.3s.2,.31,.26,.5l.33,.9c.06,.16,.12,.29,.19,.4,.07,.11,.15,.19,.24,.27-.08,.1-.19,.19-.34,.26s-.31,.1-.47,.1c-.22,0-.38-.06-.48-.18-.1-.12-.2-.3-.28-.54l-.38-1.07c-.06-.18-.15-.33-.27-.46-.12-.12-.31-.19-.56-.19h-1.04v-.92c.12,0,.27-.01,.44-.02,.17,0,.34-.01,.5-.02s.29,0,.37,0c.26,0,.46-.05,.6-.14,.14-.09,.23-.22,.29-.36,.05-.15,.08-.3,.08-.47,0-.17-.03-.33-.08-.48-.05-.15-.15-.27-.29-.36-.14-.09-.34-.14-.6-.14-.11,0-.24,0-.39,0-.15,0-.3,0-.44,0v5.28c-.1,.02-.2,.03-.31,.04-.11,0-.21,0-.29,0-.08,0-.17,0-.28,0-.11,0-.22-.02-.31-.04v-6.1l.06-.06c.36,0,.71-.01,1.05-.02s.67-.01,1-.01c.42,0,.79,.07,1.1,.21,.32,.14,.57,.35,.75,.63,.18,.28,.27,.64,.27,1.07Z"/><path class="g" d="M133.58,48.4c.09-.02,.19-.03,.31-.04,.12,0,.21,0,.29,0,.09,0,.19,0,.29,0,.11,0,.21,.02,.31,.04v6.15c-.1,.02-.2,.03-.31,.04-.11,0-.21,0-.29,0-.08,0-.17,0-.29,0-.12,0-.22-.02-.31-.04v-6.15Z"/><path class="g" d="M136.07,48.46l.06-.06h1.13v.99c0,.13,0,.23,0,.32,0,.09,0,.2,0,.32v2.98c0,.1,0,.19,0,.27,0,.08,0,.18,0,.28v1h-.49c-.22,0-.39-.06-.51-.19-.12-.13-.18-.3-.18-.53v-5.39Zm3.82-.06c.02,.09,.03,.17,.03,.25s0,.15,0,.22,0,.15-.02,.25c-.02,.1-.04,.2-.07,.29h-1.98c-.07,0-.17,0-.29,0s-.25,0-.38,0c-.13,0-.24,0-.33,0v-1h3.04Zm-.51,2.56c.02,.08,.04,.16,.05,.25,.01,.09,.02,.18,.02,.24s0,.15-.02,.24c-.01,.09-.03,.18-.05,.25h-1.53c-.07,0-.17,0-.29,0h-.38c-.13,0-.24,0-.33-.01v-.96c.09,0,.2,0,.33,0h.38c.12,0,.22,0,.29,0h1.53Zm.71,2.59c0,.35-.05,.6-.16,.77s-.32,.25-.63,.25h-2.45v-.98c.17,0,.34-.02,.5-.03,.16,0,.34-.01,.54-.01h2.2Z"/><path class="g" d="M140.43,54.01c.01-.17,.07-.34,.16-.51s.2-.3,.32-.4c.26,.16,.55,.3,.87,.42,.32,.12,.64,.18,.95,.18s.54-.07,.7-.21,.23-.31,.23-.5c0-.15-.05-.3-.15-.44s-.28-.27-.54-.38l-1.08-.45c-.38-.16-.68-.37-.91-.62-.23-.26-.35-.59-.35-1,0-.35,.09-.66,.27-.94,.18-.27,.43-.49,.75-.64,.32-.16,.68-.23,1.09-.23s.78,.05,1.13,.16c.35,.1,.65,.22,.88,.34,0,.17-.05,.34-.12,.51-.07,.17-.17,.3-.29,.41-.23-.11-.49-.21-.79-.3-.29-.09-.56-.13-.8-.13-.29,0-.52,.07-.67,.21-.15,.14-.22,.3-.22,.47,0,.16,.05,.29,.16,.39,.1,.11,.26,.2,.47,.29l1.09,.45c.27,.11,.51,.26,.72,.42,.2,.17,.36,.36,.47,.58s.17,.46,.17,.73c0,.35-.08,.67-.25,.96s-.42,.51-.76,.67c-.34,.16-.76,.25-1.27,.25-.37,0-.75-.06-1.15-.18-.4-.12-.75-.28-1.07-.5Z"/><path class="g" d="M147.55,48.4c.09-.02,.19-.03,.31-.04,.12,0,.21,0,.29,0,.09,0,.19,0,.29,0,.11,0,.21,.02,.31,.04v6.15c-.1,.02-.2,.03-.31,.04-.11,0-.21,0-.29,0-.08,0-.17,0-.29,0-.12,0-.22-.02-.31-.04v-6.15Z"/><path class="g" d="M150.04,48.42c.1-.02,.22-.04,.37-.05,.15-.01,.27-.02,.35-.02s.19,0,.32,0c.13,0,.26,.02,.39,.04l-.31,1.39-.08,.02c.02,.23,.03,.5,.05,.79,.01,.29,.03,.58,.03,.88,0,.29,.01,.56,.01,.79v2.28c-.1,.02-.2,.03-.29,.04-.1,0-.18,0-.26,0s-.17,0-.27,0c-.11,0-.21-.02-.3-.04v-6.13Zm1.6,2.64c-.11-.23-.21-.45-.3-.67-.09-.22-.17-.42-.24-.6l-.56-.66,.93-.74,1.63,3.49c.11,.25,.22,.49,.32,.72,.1,.23,.19,.44,.26,.61l.61,.65-.99,.68-1.66-3.49Zm3.1-2.66v6.13c-.1,.02-.22,.04-.37,.05-.15,.01-.27,.02-.36,.02s-.2,0-.32,0c-.13,0-.25-.02-.38-.04l.32-1.32,.09-.02c-.02-.26-.04-.54-.05-.85-.01-.3-.03-.6-.03-.88,0-.29,0-.53,0-.74v-1.65c0-.27,.05-.46,.16-.57,.1-.11,.27-.17,.51-.17h.39l.06,.05Z"/><path class="g" d="M157.15,49.41c-.02-.09-.03-.18-.04-.27s0-.17,0-.23,0-.15,0-.24,.02-.18,.04-.27h4.31c.02,.07,.04,.14,.05,.23,.01,.08,.02,.17,.02,.24,0,.2-.05,.34-.16,.42s-.27,.12-.49,.12h-.42c-.06,0-.15,0-.27,0s-.21,0-.28,0h-1.21c-.06,0-.15,0-.27,0-.12,0-.21,0-.27,0h-1Zm1.54,.66c0-.12,0-.23,0-.33,0-.1,0-.21,0-.34v-.5h1.2v.5c0,.13,0,.24,0,.34s0,.21,0,.33v4.49c-.1,.02-.21,.03-.31,.04-.11,0-.21,0-.29,0-.09,0-.19,0-.3,0-.11,0-.21-.02-.31-.04v-4.49Z"/><path class="g" d="M163.28,54.55c-.1,.02-.2,.03-.31,.04-.11,0-.21,0-.29,0-.08,0-.18,0-.29,0-.12,0-.22-.02-.31-.04v-6.15c.09-.02,.2-.03,.31-.04,.12,0,.21,0,.29,0,.08,0,.18,0,.29,0,.11,0,.22,.02,.31,.04v1.81c0,.13,0,.24,0,.34,0,.1,0,.21,0,.33v1c0,.12,0,.23,0,.33,0,.1,0,.21,0,.34v2Zm.47-2.66s-.08,0-.15,0h-.19c-.06,0-.11,0-.15,0-.12,0-.24,0-.36,0-.12,0-.25,0-.37,0v-1.02c.12,0,.24,0,.37,0s.24,0,.36,0c.04,0,.09,0,.15,0s.12,0,.19,0c.06,0,.11,0,.15,0h1.27s.08,0,.15,0c.06,0,.12,0,.19,0,.06,0,.11,0,.14,0,.12,0,.24,0,.36,0,.12,0,.24,0,.36,0v1.02c-.12,0-.24,0-.36,0-.12,0-.24,0-.36,0-.03,0-.08,0-.14,0h-.19c-.06,0-.11,0-.15,0h-1.27Zm1.74,.66c0-.13,0-.24,0-.34,0-.1,0-.21,0-.33v-1c0-.12,0-.23,0-.33,0-.1,0-.21,0-.34v-1.81c.1-.02,.2-.03,.31-.04,.11,0,.21,0,.29,0s.18,0,.29,0c.12,0,.22,.02,.31,.04v6.15c-.1,.02-.2,.03-.31,.04-.11,0-.2,0-.29,0s-.19,0-.3,0c-.11,0-.22-.02-.32-.04v-2Z"/><path class="g" d="M167.97,48.46l.06-.06h1.13v.99c0,.13,0,.23,0,.32,0,.09,0,.2,0,.32v2.98c0,.1,0,.19,0,.27,0,.08,0,.18,0,.28v1h-.49c-.22,0-.39-.06-.51-.19-.12-.13-.18-.3-.18-.53v-5.39Zm3.82-.06c.02,.09,.03,.17,.03,.25s0,.15,0,.22,0,.15-.02,.25c-.02,.1-.04,.2-.07,.29h-1.98c-.07,0-.17,0-.29,0s-.25,0-.38,0c-.13,0-.24,0-.33,0v-1h3.04Zm-.51,2.56c.02,.08,.04,.16,.05,.25,.01,.09,.02,.18,.02,.24s0,.15-.02,.24c-.01,.09-.03,.18-.05,.25h-1.53c-.07,0-.17,0-.29,0h-.38c-.13,0-.24,0-.33-.01v-.96c.09,0,.2,0,.33,0h.38c.12,0,.22,0,.29,0h1.53Zm.71,2.59c0,.35-.05,.6-.16,.77s-.32,.25-.63,.25h-2.45v-.98c.17,0,.34-.02,.5-.03,.16,0,.34-.01,.54-.01h2.2Z"/><path class="g" d="M174.94,48.41c.13-.02,.27-.04,.43-.04,.16,0,.29-.01,.39-.01s.23,0,.37,.01c.14,0,.27,.02,.4,.04l.69,2.5c.02,.06,.04,.16,.07,.29,.03,.13,.07,.28,.1,.44,.04,.16,.07,.31,.1,.46,.03,.15,.05,.26,.07,.35h.06c.01-.09,.04-.2,.07-.35,.03-.15,.06-.3,.1-.46s.07-.3,.1-.44c.03-.13,.06-.23,.07-.29l.69-2.5c.13-.02,.27-.04,.41-.04,.13,0,.25-.01,.36-.01s.23,0,.39,.01c.15,0,.29,.02,.43,.04l.48,6.13c-.09,.02-.19,.04-.3,.05-.11,.01-.22,.02-.31,.02s-.18,0-.27,0c-.09,0-.18-.02-.27-.03l-.17-2.89c0-.19-.02-.4-.03-.63s-.02-.46-.03-.7c0-.23-.01-.44-.02-.63h-.05l-1.06,3.91c-.09,.02-.19,.03-.31,.03-.12,0-.22,.01-.31,.01-.08,0-.18,0-.3-.01-.12,0-.23-.02-.32-.03l-1.05-3.91h-.05c0,.19,0,.39-.02,.63,0,.23-.02,.46-.02,.7s-.02,.44-.03,.63l-.18,2.89c-.09,.02-.18,.03-.27,.03-.09,0-.18,0-.27,0-.1,0-.2,0-.31-.02-.11-.01-.21-.03-.29-.05l.48-6.13Z"/><path class="g" d="M183.2,48.4c.09-.02,.21-.03,.34-.03,.14,0,.25-.01,.35-.01s.21,0,.35,.01,.25,.02,.34,.04l1.98,6.07c-.08,.05-.19,.08-.32,.11-.13,.03-.25,.04-.37,.04-.19,0-.34-.04-.45-.13-.11-.09-.2-.26-.27-.52l-.82-2.69c-.08-.26-.16-.55-.25-.86-.09-.32-.17-.61-.24-.88h-.05c-.03,.15-.07,.32-.12,.5-.05,.18-.09,.36-.14,.54s-.09,.34-.13,.48l-1.08,3.51c-.08,.02-.16,.03-.24,.04-.09,0-.18,0-.28,0s-.2,0-.31-.02c-.11-.02-.2-.03-.27-.06l-.04-.06,2.01-6.06Zm0,4.77s-.09,0-.16,0c-.07,0-.14,0-.21,0-.07,0-.12,0-.16,0h-.61l.37-.96h.54s.09,0,.15,0,.13,0,.19,0c.06,0,.11,0,.15,0h.77s.09,0,.15,0c.06,0,.13,0,.19,0s.12,0,.15,0h.55l.31,.96h-.61s-.09,0-.16,0c-.07,0-.14,0-.21,0s-.12,0-.16,0h-1.26Z"/><path class="g" d="M187.21,48.4c.09-.02,.2-.03,.31-.04,.12,0,.21,0,.29,0,.08,0,.18,0,.29,0,.11,0,.22,.02,.31,.04v6.15c-.1,.02-.2,.03-.31,.04-.11,0-.21,0-.29,0-.08,0-.18,0-.29,0-.12,0-.22-.02-.31-.04v-6.15Zm2.95,.41c.08-.15,.17-.26,.25-.34s.22-.11,.41-.11c.1,0,.22,0,.34,0,.13,0,.25,.01,.37,.03l.07,.09-1.22,2.18c-.15,.28-.35,.5-.58,.66-.23,.16-.54,.24-.92,.24h-1.08v-.68c.16,0,.32-.01,.49-.01s.33,0,.49,0c.1,0,.18-.02,.22-.06s.1-.11,.16-.22l1-1.78Zm1.69,5.44c-.08,.12-.19,.21-.34,.28-.15,.06-.3,.1-.46,.1-.23,0-.39-.06-.49-.18-.1-.12-.19-.29-.27-.53l-.41-1.18c-.11-.31-.23-.53-.38-.66-.14-.13-.34-.19-.58-.19-.11,0-.27,0-.46,.02-.19,.01-.41,.02-.66,.04v-.76h1.67c.32,0,.58,.05,.77,.14,.19,.09,.34,.22,.45,.39,.11,.17,.2,.36,.28,.59l.43,1.2c.05,.15,.1,.27,.14,.36,.04,.09,.09,.17,.13,.22,.05,.06,.1,.11,.16,.17Z"/><path class="g" d="M192.5,48.4c.09-.02,.19-.03,.31-.04,.12,0,.21,0,.29,0,.09,0,.19,0,.29,0,.11,0,.21,.02,.31,.04v6.15c-.1,.02-.2,.03-.31,.04-.11,0-.21,0-.29,0-.08,0-.17,0-.29,0-.12,0-.22-.02-.31-.04v-6.15Z"/><path class="g" d="M195,48.42c.1-.02,.22-.04,.37-.05,.15-.01,.27-.02,.35-.02s.19,0,.32,0c.13,0,.26,.02,.39,.04l-.31,1.39-.08,.02c.02,.23,.03,.5,.05,.79,.01,.29,.03,.58,.03,.88,0,.29,.01,.56,.01,.79v2.28c-.1,.02-.2,.03-.29,.04-.1,0-.18,0-.26,0s-.17,0-.27,0c-.11,0-.21-.02-.3-.04v-6.13Zm1.6,2.64c-.11-.23-.21-.45-.3-.67-.09-.22-.17-.42-.24-.6l-.56-.66,.93-.74,1.63,3.49c.11,.25,.22,.49,.32,.72,.1,.23,.19,.44,.26,.61l.61,.65-.99,.68-1.66-3.49Zm3.1-2.66v6.13c-.1,.02-.22,.04-.37,.05-.15,.01-.27,.02-.36,.02s-.2,0-.32,0c-.13,0-.25-.02-.38-.04l.32-1.32,.09-.02c-.02-.26-.04-.54-.05-.85-.01-.3-.03-.6-.03-.88,0-.29,0-.53,0-.74v-1.65c0-.27,.05-.46,.16-.57,.1-.11,.27-.17,.51-.17h.39l.06,.05Z"/><path class="g" d="M205.54,48.93c-.02,.18-.08,.35-.2,.51-.12,.16-.23,.29-.35,.37-.22-.15-.46-.28-.73-.37-.27-.1-.54-.14-.81-.14-.31,0-.59,.08-.83,.23-.24,.15-.43,.39-.56,.72-.13,.33-.2,.76-.2,1.3,0,.75,.14,1.3,.42,1.65,.28,.35,.68,.53,1.22,.53,.31,0,.59-.03,.84-.09,.25-.06,.45-.12,.6-.17l.63,.86c-.18,.06-.39,.12-.63,.18-.24,.06-.5,.11-.78,.14-.28,.04-.57,.05-.86,.05-.47,0-.88-.08-1.22-.24s-.61-.38-.83-.66-.37-.62-.47-1c-.1-.38-.15-.8-.15-1.26,0-.56,.08-1.04,.23-1.45,.15-.41,.36-.75,.63-1.01s.56-.46,.9-.59,.67-.19,1.02-.19c.39,0,.78,.06,1.15,.18,.38,.12,.71,.28,1,.48Zm-.81,2.26c.31,0,.52,.07,.64,.21s.18,.32,.18,.55v.26h-1.72c-.18,0-.32-.03-.43-.1s-.16-.21-.16-.41c0-.08,0-.17,.03-.26,.02-.09,.04-.17,.06-.24h1.4Zm-.32,1.62c0-.21,0-.42,.02-.63,.01-.21,.04-.4,.09-.57l1.03,.35v2.36l-1.14,.02v-1.52Z"/></g></svg>